<svg width="27" height="25" viewBox="0 0 27 25" fill="none" xmlns="http://www.w3.org/2000/svg">
<rect y="0.5" width="27" height="24" rx="5" fill="#F67952" fill-opacity="0.1"/>
<path fill-rule="evenodd" clip-rule="evenodd" d="M10.8575 5H17.1432C19.46 5 20.75 6.335 20.75 8.6225V16.37C20.75 18.695 19.46 20 17.1432 20H10.8575C8.5775 20 7.25 18.695 7.25 16.37V8.6225C7.25 6.335 8.5775 5 10.8575 5ZM11.06 8.49502V8.48752H13.3018C13.625 8.48752 13.8875 8.75002 13.8875 9.07177C13.8875 9.40252 13.625 9.66502 13.3018 9.66502H11.06C10.7368 9.66502 10.475 9.40252 10.475 9.08002C10.475 8.75752 10.7368 8.49502 11.06 8.49502ZM11.06 13.055H16.94C17.2625 13.055 17.525 12.7925 17.525 12.47C17.525 12.1475 17.2625 11.8843 16.94 11.8843H11.06C10.7368 11.8843 10.475 12.1475 10.475 12.47C10.475 12.7925 10.7368 13.055 11.06 13.055ZM11.06 16.4825H16.94C17.2393 16.4525 17.465 16.1968 17.465 15.8975C17.465 15.59 17.2393 15.335 16.94 15.305H11.06C10.835 15.2825 10.6175 15.3875 10.4975 15.5825C10.3775 15.77 10.3775 16.0175 10.4975 16.2125C10.6175 16.4 10.835 16.5125 11.06 16.4825Z" fill="#F67952"/>
</svg>
