<svg width="18" height="21" viewBox="0 0 18 21" fill="none" xmlns="http://www.w3.org/2000/svg">
<path fill-rule="evenodd" clip-rule="evenodd" d="M13.9303 5.5C13.9621 5.42913 13.977 5.35189 13.9739 5.27432H14C13.8882 2.60591 11.6849 0.5 9.00494 0.5C6.325 0.5 4.12172 2.60591 4.00989 5.27432C3.9967 5.34898 3.9967 5.42535 4.00989 5.5H3.93171C2.65022 5.5 1.28034 6.34597 0.882639 8.62007L0.104905 14.8147C-0.531424 19.3629 1.81062 20.5 4.86853 20.5H13.1585C16.2075 20.5 18.4789 18.8535 17.9133 14.8147L17.1444 8.62007C16.676 6.40964 15.3503 5.5 14.0865 5.5H13.9303ZM12.4932 5.5C12.4654 5.42794 12.4506 5.35153 12.4497 5.27432C12.4497 3.35682 10.8899 1.80238 8.96575 1.80238C7.04164 1.80238 5.48184 3.35682 5.48184 5.27432C5.49502 5.34898 5.49502 5.42535 5.48184 5.5H12.4932ZM6.09702 10.6486C5.60891 10.6486 5.21323 10.2413 5.21323 9.73891C5.21323 9.23653 5.60891 8.82927 6.09702 8.82927C6.58512 8.82927 6.98081 9.23653 6.98081 9.73891C6.98081 10.2413 6.58512 10.6486 6.09702 10.6486ZM11.002 9.73891C11.002 10.2413 11.3977 10.6486 11.8858 10.6486C12.3739 10.6486 12.7696 10.2413 12.7696 9.73891C12.7696 9.23653 12.3739 8.82927 11.8858 8.82927C11.3977 8.82927 11.002 9.23653 11.002 9.73891Z" fill="#F67952"/>
</svg>
