<svg width="21" height="21" viewBox="0 0 21 21" fill="none" xmlns="http://www.w3.org/2000/svg">
<path fill-rule="evenodd" clip-rule="evenodd" d="M6.15279 17.8203C6.57479 17.8203 6.91779 18.1633 6.91779 18.5853C6.91779 19.0073 6.57479 19.3493 6.15279 19.3493C5.73079 19.3493 5.38879 19.0073 5.38879 18.5853C5.38879 18.1633 5.73079 17.8203 6.15279 17.8203Z" stroke="black" stroke-opacity="0.5" stroke-width="1.5" stroke-linecap="round" stroke-linejoin="round"/>
<path fill-rule="evenodd" clip-rule="evenodd" d="M17.4051 17.8203C17.8271 17.8203 18.1701 18.1633 18.1701 18.5853C18.1701 19.0073 17.8271 19.3493 17.4051 19.3493C16.9831 19.3493 16.6401 19.0073 16.6401 18.5853C16.6401 18.1633 16.9831 17.8203 17.4051 17.8203Z" stroke="black" stroke-opacity="0.5" stroke-width="1.5" stroke-linecap="round" stroke-linejoin="round"/>
<path d="M1.48035 1.25L3.56035 1.61L4.52335 13.083C4.60135 14.018 5.38235 14.736 6.32035 14.736H17.2323C18.1283 14.736 18.8883 14.078 19.0173 13.19L19.9663 6.632C20.0833 5.823 19.4563 5.099 18.6393 5.099H3.89435" stroke="black" stroke-opacity="0.5" stroke-width="1.5" stroke-linecap="round" stroke-linejoin="round"/>
<path d="M12.8558 8.79504H15.6288" stroke="black" stroke-opacity="0.5" stroke-width="1.5" stroke-linecap="round" stroke-linejoin="round"/>
</svg>
