<svg width="16" height="14" viewBox="0 0 16 14" fill="none" xmlns="http://www.w3.org/2000/svg">
<path fill-rule="evenodd" clip-rule="evenodd" d="M5.6583 2.78392C5.6583 4.18392 4.50414 5.31866 3.07915 5.31866C1.65499 5.31866 0.5 4.18392 0.5 2.78392C0.5 1.38474 1.65499 0.25 3.07915 0.25C4.50414 0.25 5.6583 1.38474 5.6583 2.78392ZM14.37 1.67374C14.9933 1.67374 15.5 2.17152 15.5 2.78392C15.5 3.39714 14.9933 3.89491 14.37 3.89491H9.43836C8.8142 3.89491 8.30754 3.39714 8.30754 2.78392C8.30754 2.17152 8.8142 1.67374 9.43836 1.67374H14.37ZM1.63083 9.96847H6.56247C7.18663 9.96847 7.69329 10.4662 7.69329 11.0795C7.69329 11.6919 7.18663 12.1905 6.56247 12.1905H1.63083C1.00666 12.1905 0.5 11.6919 0.5 11.0795C0.5 10.4662 1.00666 9.96847 1.63083 9.96847ZM12.9208 13.5833C14.3458 13.5833 15.5 12.4486 15.5 11.0494C15.5 9.64941 14.3458 8.51468 12.9208 8.51468C11.4967 8.51468 10.3417 9.64941 10.3417 11.0494C10.3417 12.4486 11.4967 13.5833 12.9208 13.5833Z" fill="white"/>
</svg>
