<svg width="27" height="25" viewBox="0 0 27 25" fill="none" xmlns="http://www.w3.org/2000/svg">
<rect y="0.5" width="27" height="24" rx="5" fill="#F67952" fill-opacity="0.1"/>
<path fill-rule="evenodd" clip-rule="evenodd" d="M12.4215 11.9225C12.0934 11.9225 11.8339 12.1775 11.8339 12.5C11.8339 12.815 12.0934 13.0775 12.4215 13.0775H17V16.6625C17 18.5 15.4815 20 13.6043 20H9.88808C8.01853 20 6.5 18.5075 6.5 16.67V8.3375C6.5 6.4925 8.02616 5 9.89571 5H13.6195C15.4815 5 17 6.4925 17 8.33V11.9225H12.4215ZM19.7226 9.90516L21.9126 12.0877C22.0251 12.2002 22.0851 12.3427 22.0851 12.5002C22.0851 12.6502 22.0251 12.8002 21.9126 12.9052L19.7226 15.0877C19.6101 15.2002 19.4601 15.2602 19.3176 15.2602C19.1676 15.2602 19.0176 15.2002 18.9051 15.0877C18.6801 14.8627 18.6801 14.4952 18.9051 14.2702L20.1051 13.0777H17.0001V11.9227H20.1051L18.9051 10.7302C18.6801 10.5052 18.6801 10.1377 18.9051 9.91266C19.1301 9.68016 19.4976 9.68016 19.7226 9.90516Z" fill="#F67952"/>
</svg>
