<svg width="27" height="24" viewBox="0 0 27 24" fill="none" xmlns="http://www.w3.org/2000/svg">
<rect width="27" height="24" rx="5" fill="#F67952" fill-opacity="0.1"/>
<path d="M18.2824 5.09305C17.8331 4.9423 17.3606 4.87555 16.8874 4.87555C15.8449 4.86805 14.8331 5.21305 13.9999 5.8498C13.9324 5.79805 13.8499 5.7523 13.7749 5.70805C13.6999 5.6623 13.5649 5.55055 13.4524 5.49055L13.1674 5.36305C13.0174 5.28055 12.8606 5.22055 12.6949 5.1673C12.6799 5.15305 12.6574 5.1373 12.6274 5.12305H12.5831C12.1399 4.9723 11.6824 4.8898 11.2099 4.87555H11.1274C10.9174 4.87555 10.7081 4.8898 10.4974 4.92055H10.4074C10.1824 4.9498 9.95814 5.0023 9.74064 5.0773C6.94239 5.99305 5.94489 9.03055 6.79239 11.6855C7.27239 13.0423 8.04564 14.273 9.05064 15.2848C10.5124 16.6948 12.1106 17.9398 13.8274 19.0048L14.0224 19.1255L14.2099 19.0123C15.9206 17.9398 17.5099 16.6948 18.9581 15.2923C19.9699 14.2805 20.7424 13.0423 21.2149 11.6855C22.0481 9.03055 21.0506 5.99305 18.2824 5.09305Z" fill="#F67952"/>
</svg>
