<svg width="27" height="24" viewBox="0 0 27 24" fill="none" xmlns="http://www.w3.org/2000/svg">
<rect width="27" height="24" rx="5" fill="#F67952" fill-opacity="0.1"/>
<path fill-rule="evenodd" clip-rule="evenodd" d="M17.6977 8.25C17.7216 8.19685 17.7328 8.13892 17.7304 8.08074H17.75C17.6661 6.07943 16.0137 4.5 14.0037 4.5C11.9937 4.5 10.3413 6.07943 10.2574 8.08074C10.2475 8.13673 10.2475 8.19401 10.2574 8.25H10.1988C9.23766 8.25 8.21026 8.88448 7.91198 10.5901L7.32868 15.2361C6.85143 18.6472 8.60796 19.5 10.9014 19.5H17.1189C19.4057 19.5 21.1092 18.2652 20.6849 15.2361L20.1083 10.5901C19.757 8.93223 18.7627 8.25 17.8148 8.25H17.6977ZM16.6199 8.25C16.599 8.19596 16.588 8.13865 16.5872 8.08074C16.5872 6.64262 15.4174 5.47679 13.9743 5.47679C12.5312 5.47679 11.3614 6.64262 11.3614 8.08074C11.3713 8.13673 11.3713 8.19401 11.3614 8.25H16.6199ZM11.8228 12.1114C11.4567 12.1114 11.1599 11.806 11.1599 11.4292C11.1599 11.0524 11.4567 10.747 11.8228 10.747C12.1888 10.747 12.4856 11.0524 12.4856 11.4292C12.4856 11.806 12.1888 12.1114 11.8228 12.1114ZM15.5015 11.4292C15.5015 11.806 15.7983 12.1114 16.1644 12.1114C16.5305 12.1114 16.8272 11.806 16.8272 11.4292C16.8272 11.0524 16.5305 10.747 16.1644 10.747C15.7983 10.747 15.5015 11.0524 15.5015 11.4292Z" fill="#F67952"/>
</svg>
