<svg width="27" height="24" viewBox="0 0 27 24" fill="none" xmlns="http://www.w3.org/2000/svg">
<rect width="27" height="24" rx="5" fill="#F67952" fill-opacity="0.1"/>
<path fill-rule="evenodd" clip-rule="evenodd" d="M18.142 8.547V9.69701C19.4338 10.1002 20.375 11.2696 20.375 12.6663V16.369C20.375 18.0981 18.9415 19.5 17.1742 19.5H10.8266C9.05852 19.5 7.625 18.0981 7.625 16.369V12.6663C7.625 11.2696 8.56696 10.1002 9.85796 9.69701V8.547C9.86559 6.31109 11.7175 4.5 13.9886 4.5C16.2901 4.5 18.142 6.31109 18.142 8.547ZM14.0038 5.80429C15.5509 5.80429 16.8083 7.03404 16.8083 8.54701V9.53528H11.1916V8.53211C11.1992 7.02659 12.4567 5.80429 14.0038 5.80429ZM14.6669 15.3412C14.6669 15.7064 14.3696 15.9971 13.9962 15.9971C13.6304 15.9971 13.3332 15.7064 13.3332 15.3412V13.6866C13.3332 13.3289 13.6304 13.0382 13.9962 13.0382C14.3696 13.0382 14.6669 13.3289 14.6669 13.6866V15.3412Z" fill="#F67952"/>
</svg>
