<svg width="20" height="20" viewBox="0 0 20 20" fill="none" xmlns="http://www.w3.org/2000/svg">
<path d="M6.91988 18.7193V15.6804C6.91988 14.9047 7.55335 14.2758 8.33477 14.2758H11.1913C11.5665 14.2758 11.9264 14.4238 12.1917 14.6872C12.4571 14.9506 12.6062 15.3079 12.6062 15.6804V18.7193C12.6038 19.0418 12.7312 19.352 12.9601 19.5808C13.189 19.8097 13.5004 19.9384 13.8253 19.9384H15.7741C16.6843 19.9408 17.558 19.5835 18.2024 18.9454C18.8468 18.3073 19.209 17.4409 19.209 16.5373V7.87997C19.209 7.15009 18.8831 6.45776 18.3191 5.98949L11.6896 0.733233C10.5364 -0.188368 8.88405 -0.158611 7.76525 0.803906L1.28699 5.98949C0.696375 6.44396 0.343372 7.13834 0.325928 7.87997V16.5285C0.325928 18.4118 1.86379 19.9384 3.76083 19.9384H5.66516C6.33992 19.9385 6.88829 19.398 6.89318 18.7282L6.91988 18.7193Z" fill="#F67952"/>
</svg>
