<svg width="26" height="25" viewBox="0 0 26 25" fill="none" xmlns="http://www.w3.org/2000/svg">
<path fill-rule="evenodd" clip-rule="evenodd" d="M6.89635 22.427C7.45902 22.427 7.91635 22.8843 7.91635 23.447C7.91635 24.0097 7.45902 24.4657 6.89635 24.4657C6.33369 24.4657 5.87769 24.0097 5.87769 23.447C5.87769 22.8843 6.33369 22.427 6.89635 22.427Z" fill="#F67952"/>
<path fill-rule="evenodd" clip-rule="evenodd" d="M21.8996 22.427C22.4622 22.427 22.9196 22.8843 22.9196 23.447C22.9196 24.0097 22.4622 24.4657 21.8996 24.4657C21.3369 24.4657 20.8796 24.0097 20.8796 23.447C20.8796 22.8843 21.3369 22.427 21.8996 22.427Z" fill="#F67952"/>
<path fill-rule="evenodd" clip-rule="evenodd" d="M0.666504 0.333252L3.43984 0.813252L4.72384 16.1106C4.82784 17.3573 5.86917 18.3146 7.11984 18.3146H21.6692C22.8638 18.3146 23.8772 17.4373 24.0492 16.2533L25.3145 7.50925C25.4705 6.43058 24.6345 5.46525 23.5452 5.46525H3.88517" fill="#F67952"/>
</svg>
