<svg width="16" height="20" viewBox="0 0 16 20" fill="none" xmlns="http://www.w3.org/2000/svg">
<ellipse cx="7.95543" cy="5.00216" rx="5.01537" ry="4.94064" fill="#F67952"/>
<path fill-rule="evenodd" clip-rule="evenodd" d="M1.69853e-05 16.8142C-0.00133057 16.4669 0.0775217 16.1238 0.230609 15.8109C0.711008 14.8645 2.06573 14.3628 3.18987 14.1357C4.00059 13.9652 4.82252 13.8514 5.64951 13.7949C7.18064 13.6624 8.72061 13.6624 10.2517 13.7949C11.0787 13.852 11.9005 13.9659 12.7114 14.1357C13.8355 14.3628 15.1902 14.8171 15.6706 15.8109C15.9785 16.4487 15.9785 17.1892 15.6706 17.8269C15.1902 18.8208 13.8355 19.2751 12.7114 19.4928C11.9016 19.6702 11.0794 19.7873 10.2517 19.843C9.00553 19.947 7.7535 19.966 6.50462 19.8997C6.21638 19.8997 5.93775 19.8997 5.64951 19.843C4.82496 19.788 4.00588 19.6709 3.19948 19.4928C2.06573 19.2751 0.720616 18.8208 0.230609 17.8269C0.0783037 17.5104 -0.000470199 17.1645 1.69853e-05 16.8142Z" fill="#F67952"/>
</svg>
