<svg width="27" height="25" viewBox="0 0 27 25" fill="none" xmlns="http://www.w3.org/2000/svg">
<rect y="0.5" width="27" height="24" rx="5" fill="#F67952" fill-opacity="0.1"/>
<path fill-rule="evenodd" clip-rule="evenodd" d="M20.3016 13.6851C20.5699 13.8276 20.7768 14.0526 20.9225 14.2776C21.2061 14.7426 21.1831 15.3126 20.9071 15.8151L20.3706 16.7151C20.087 17.1951 19.5582 17.4951 19.014 17.4951C18.7457 17.4951 18.4468 17.4201 18.2015 17.2701C18.0022 17.1426 17.7723 17.0976 17.527 17.0976C16.7682 17.0976 16.1321 17.7201 16.1091 18.4626C16.1091 19.3251 15.4039 20.0001 14.5225 20.0001H13.4801C12.591 20.0001 11.8858 19.3251 11.8858 18.4626C11.8705 17.7201 11.2343 17.0976 10.4755 17.0976C10.2226 17.0976 9.99264 17.1426 9.80102 17.2701C9.55576 17.4201 9.24917 17.4951 8.98857 17.4951C8.43671 17.4951 7.90785 17.1951 7.62426 16.7151L7.09539 15.8151C6.8118 15.3276 6.79647 14.7426 7.08006 14.2776C7.2027 14.0526 7.43264 13.8276 7.69324 13.6851C7.90785 13.5801 8.04581 13.4076 8.17611 13.2051C8.55935 12.5601 8.32941 11.7126 7.67791 11.3301C6.91911 10.9026 6.67384 9.95006 7.11072 9.20756L7.62426 8.32256C8.06881 7.58006 9.01923 7.31756 9.7857 7.75256C10.4525 8.11256 11.3186 7.87256 11.7095 7.23506C11.8322 7.02506 11.9011 6.80006 11.8858 6.57506C11.8705 6.28256 11.9548 6.00506 12.1004 5.78006C12.384 5.31506 12.8976 5.01506 13.4571 5.00006H14.5378C15.105 5.00006 15.6185 5.31506 15.9021 5.78006C16.0401 6.00506 16.1321 6.28256 16.1091 6.57506C16.0937 6.80006 16.1627 7.02506 16.2853 7.23506C16.6762 7.87256 17.5424 8.11256 18.2168 7.75256C18.9756 7.31756 19.9337 7.58006 20.3706 8.32256L20.8842 9.20756C21.3287 9.95006 21.0834 10.9026 20.317 11.3301C19.6655 11.7126 19.4355 12.5601 19.8264 13.2051C19.9491 13.4076 20.087 13.5801 20.3016 13.6851ZM11.8322 12.5075C11.8322 13.685 12.8056 14.6225 14.009 14.6225C15.2123 14.6225 16.1627 13.685 16.1627 12.5075C16.1627 11.33 15.2123 10.385 14.009 10.385C12.8056 10.385 11.8322 11.33 11.8322 12.5075Z" fill="#F67952"/>
</svg>
