<svg width="27" height="25" viewBox="0 0 27 25" fill="none" xmlns="http://www.w3.org/2000/svg">
<rect y="0.5" width="27" height="24" rx="5" fill="#F67952" fill-opacity="0.1"/>
<path fill-rule="evenodd" clip-rule="evenodd" d="M18.3267 9.78635H21.5C21.5 7.23844 19.9733 5.75 17.3867 5.75H10.6133C8.02667 5.75 6.5 7.23844 6.5 9.75385V15.2461C6.5 17.7616 8.02667 19.25 10.6133 19.25H17.3867C19.9733 19.25 21.5 17.7616 21.5 15.2461V15.0122H18.3267C16.8539 15.0122 15.66 13.8481 15.66 12.4123C15.66 10.9764 16.8539 9.81235 18.3267 9.81235V9.78635ZM18.3267 10.9043H20.94C21.2493 10.9043 21.5 11.1487 21.5 11.4503V13.3482C21.4964 13.6483 21.2478 13.8907 20.94 13.8942H18.3867C17.6411 13.904 16.9891 13.4063 16.82 12.6982C16.7353 12.2587 16.8542 11.8052 17.1448 11.4592C17.4354 11.1131 17.868 10.91 18.3267 10.9043ZM18.44 12.8997H18.6867C19.0033 12.8997 19.26 12.6495 19.26 12.3407C19.26 12.032 19.0033 11.7818 18.6867 11.7818H18.44C18.2886 11.78 18.1427 11.8375 18.035 11.9413C17.9273 12.0451 17.8667 12.1866 17.8667 12.3342C17.8667 12.644 18.1223 12.8962 18.44 12.8997ZM10.0533 9.78634H14.2867C14.6033 9.78634 14.86 9.53608 14.86 9.22736C14.86 8.91864 14.6033 8.66838 14.2867 8.66838H10.0533C9.73926 8.66836 9.48364 8.91469 9.47999 9.22086C9.47997 9.53064 9.7356 9.78278 10.0533 9.78634Z" fill="#F67952"/>
</svg>
